<?xml version="1.0" standalone="no"?>
<!DOCTYPE svg PUBLIC "-//W3C//DTD SVG 20010904//EN"
 "http://www.w3.org/TR/2001/REC-SVG-20010904/DTD/svg10.dtd">
<svg version="1.0" xmlns="http://www.w3.org/2000/svg"
 width="579.000000pt" height="780.000000pt" viewBox="0 0 579.000000 780.000000"
 preserveAspectRatio="xMidYMid meet">
<metadata>
Created by potrace 1.10, written by Peter Selinger 2001-2011
</metadata>
<g transform="translate(0.000000,780.000000) scale(0.100000,-0.100000)"
fill="#ff0000" stroke="none">
<path d="M2515 7444 c-237 -34 -461 -91 -655 -167 -121 -47 -317 -143 -373
-181 -21 -14 -40 -26 -43 -26 -5 0 -64 -40 -74 -50 -3 -3 -50 -41 -105 -85
-165 -133 -292 -271 -400 -435 -56 -85 -135 -241 -165 -325 -89 -253 -120
-550 -85 -815 8 -63 18 -122 21 -132 3 -9 9 -39 14 -65 5 -26 22 -87 39 -135
28 -80 39 -106 63 -148 4 -8 12 -24 17 -36 5 -11 28 -52 51 -90 211 -345 610
-663 1135 -904 143 -66 145 -67 245 -105 103 -39 150 -57 208 -80 52 -20 358
-124 412 -139 25 -8 90 -28 145 -46 55 -17 114 -35 130 -40 41 -12 275 -83
415 -126 195 -61 241 -78 395 -144 362 -157 567 -331 692 -588 47 -98 64 -173
70 -318 7 -178 -31 -340 -119 -505 -108 -204 -306 -389 -553 -519 -44 -23 -98
-48 -120 -56 -239 -90 -375 -127 -530 -145 -44 -5 -107 -14 -140 -19 -146 -24
-490 -8 -710 31 -33 6 -80 14 -105 18 -98 16 -481 135 -548 170 -9 5 -60 31
-112 56 -255 126 -466 284 -668 502 -108 117 -232 277 -287 371 -27 46 -45 64
-61 60 -10 -2 -40 -30 -67 -63 -27 -33 -91 -112 -142 -175 -51 -63 -103 -126
-115 -140 -27 -30 -125 -157 -163 -212 -15 -21 -27 -46 -27 -56 1 -16 70 -109
191 -258 151 -184 418 -408 664 -556 71 -43 323 -171 415 -211 36 -16 74 -34
84 -39 11 -6 31 -14 45 -18 14 -5 71 -25 126 -45 55 -20 114 -40 130 -45 17
-4 66 -18 110 -30 262 -72 433 -103 710 -130 333 -31 717 5 1080 102 113 30
225 63 260 78 226 93 313 133 390 180 28 16 57 33 65 36 8 4 59 37 114 73 54
36 105 71 114 76 29 17 154 125 231 199 240 231 398 499 470 801 44 184 51
242 51 443 0 201 -12 306 -54 467 -67 254 -219 502 -426 690 -30 28 -61 56
-70 64 -27 26 -246 185 -296 216 -112 68 -321 171 -454 225 -30 12 -64 26 -75
31 -11 5 -65 25 -120 44 -55 20 -116 42 -135 49 -40 15 -197 65 -285 91 -33
10 -78 24 -100 31 -22 7 -65 19 -95 28 -30 8 -102 29 -160 45 -58 17 -130 38
-160 47 -30 9 -70 22 -88 30 -18 8 -40 14 -49 14 -40 0 -430 138 -598 212 -89
39 -302 146 -335 169 -14 9 -59 38 -100 65 -104 67 -279 239 -331 326 -167
276 -181 583 -40 888 69 151 171 275 327 398 78 62 265 172 333 196 147 53
233 77 371 102 141 27 564 24 745 -5 136 -21 259 -46 310 -61 116 -36 293 -99
332 -118 221 -109 324 -173 473 -293 94 -77 118 -97 217 -190 28 -27 57 -49
62 -49 10 0 26 32 66 125 37 87 80 175 106 213 16 24 29 45 29 47 0 2 24 42
52 90 29 48 58 95 63 105 6 10 16 24 22 32 7 8 15 33 19 57 l7 43 -70 67 c-61
58 -234 195 -288 228 -11 7 -56 34 -100 61 -174 106 -403 208 -640 286 -219
72 -336 100 -580 137 -122 19 -695 21 -820 3z"/>
</g>
</svg>
